<svg xmlns="http://www.w3.org/2000/svg" viewBox="0 0 64 64" width="40" height="40">
  <!-- Szirmok -->
  <ellipse cx="32" cy="10" rx="5" ry="10" fill="#f5c518" transform="rotate(0 32 32)"/>
  <ellipse cx="32" cy="10" rx="5" ry="10" fill="#f5c518" transform="rotate(45 32 32)"/>
  <ellipse cx="32" cy="10" rx="5" ry="10" fill="#f5c518" transform="rotate(90 32 32)"/>
  <ellipse cx="32" cy="10" rx="5" ry="10" fill="#f5c518" transform="rotate(135 32 32)"/>
  <ellipse cx="32" cy="10" rx="5" ry="10" fill="#f5c518" transform="rotate(180 32 32)"/>
  <ellipse cx="32" cy="10" rx="5" ry="10" fill="#f5c518" transform="rotate(225 32 32)"/>
  <ellipse cx="32" cy="10" rx="5" ry="10" fill="#f5c518" transform="rotate(270 32 32)"/>
  <ellipse cx="32" cy="10" rx="5" ry="10" fill="#f5c518" transform="rotate(315 32 32)"/>
  <!-- Középső mag -->
  <circle cx="32" cy="32" r="11" fill="#5c3317"/>
  <!-- Napi ajánlat felirat helyett csillag -->
  <circle cx="32" cy="32" r="6" fill="#f5c518" opacity="0.7"/>
</svg>
